<svg xmlns="http://www.w3.org/2000/svg" viewBox="0 0 62.29 58.13"><defs><style>.cls-1,.cls-2,.cls-3,.cls-4,.cls-5,.cls-6,.cls-7{fill:none;stroke:#faf9fa;stroke-linecap:round;stroke-miterlimit:10;}.cls-1{stroke-width:1.75px;}.cls-2{stroke-width:1.5px;}.cls-3{stroke-width:1.25px;}.cls-5{stroke-width:0.75px;}.cls-6{stroke-width:0.5px;}.cls-7{stroke-width:1.1px;}.cls-8{font-size:8.06px;fill:#faf9fa;font-family:IM_FELL_English_SC, IM FELL English SC;}.cls-9{letter-spacing:0em;}.cls-10{letter-spacing:-0.02em;}.cls-11{letter-spacing:-0.01em;}</style></defs><g id="Layer_2" data-name="Layer 2"><g id="Layer_1-2" data-name="Layer 1"><path class="cls-1" d="M5.92,48c-.24-9.69.12-17.81.55-23.89.74-10.63,1.74-15,5.09-18.63A13.39,13.39,0,0,1,20.24.91C25.72.49,29.72,4.4,31.12,5.75c2.41,2.43,4.61,5.85,7.18,17.48a218.46,218.46,0,0,1,3.22,24.85"/><path class="cls-2" d="M8.56,48c-.19-9.28.1-17.06.45-22.88.6-10.18,1.09-14.38,3.84-17.83a11.18,11.18,0,0,1,8.32-4.17c3.85,0,7.65,4,8.8,5.26,2,2.32,4,6,6.1,17.1a221.79,221.79,0,0,1,2.83,22.6"/><path class="cls-3" d="M10.89,48.08c-.16-8.93.09-16.06.38-21.66.51-9.8.7-14.19,3-17.51a9,9,0,0,1,7-4c3.22,0,6.62,4.16,7.58,5.4,1.65,2.24,3.35,5.75,5.11,16.47,1.05,7.56,2,13.62,2.37,21.31"/><path class="cls-4" d="M12.92,48.08c-.14-8.54.07-15.36.31-20.72.42-9.37.27-13.66,2.18-16.84a7.19,7.19,0,0,1,5.76-3.75c2.6,0,5.82,4,6.62,5.18,1.37,2.14,2.78,5.49,4.24,15.74.88,7.24,1.63,13,2,20.39"/><circle class="cls-5" cx="21.98" cy="29.17" r="2.11"/><circle class="cls-3" cx="21.98" cy="29.17" r="3.65"/><circle class="cls-6" cx="21.98" cy="29.17" r="0.85"/><circle class="cls-5" cx="52.91" cy="5.01" r="2.11"/><circle class="cls-7" cx="52.91" cy="5.01" r="3.53"/><circle class="cls-6" cx="52.91" cy="5.01" r="0.85"/><line class="cls-4" x1="50.61" y1="13.25" x2="50.61" y2="48.15"/><line class="cls-2" x1="52.91" y1="13.19" x2="52.91" y2="48.09"/><line class="cls-4" x1="55.21" y1="13.25" x2="55.21" y2="48.16"/><text class="cls-8" transform="translate(0 55.82)">B<tspan class="cls-9" x="5.32" y="0">o</tspan><tspan x="9.63" y="0">hemian </tspan><tspan class="cls-10" x="35.8" y="0">J</tspan><tspan x="38.9" y="0">ewel</tspan><tspan class="cls-11" x="54.84" y="0">r</tspan><tspan x="58.68" y="0">y</tspan></text></g></g></svg>